<svg width="31" height="28" viewBox="0 0 31 28" fill="none" xmlns="http://www.w3.org/2000/svg">
<path d="M7.63086 23.2386L15.2625 27.2852L15.2625 18.6612L7.63086 14.6146L7.63086 23.2386Z" fill="#FFED4F"/>
<path d="M7.63168 13.4065L0 17.4531L7.53928e-07 8.82921L7.63168 4.78262L7.63168 13.4065Z" fill="#FF974B"/>
<path d="M22.8953 23.2386L15.2637 27.2852L15.2637 18.6612L22.8953 14.6146L22.8953 23.2386Z" fill="#FFCD17"/>
<path d="M15.2625 9.34403L7.63086 13.3906L7.63086 4.76671L15.2625 0.720117L15.2625 9.34403Z" fill="#FF974B"/>
<path d="M15.2629 9.34403L22.8945 13.3906L22.8945 4.76671L15.2629 0.720116L15.2629 9.34403Z" fill="#FF974B"/>
<path d="M22.8957 13.4065L30.5273 17.4531L30.5273 8.82921L22.8957 4.78262L22.8957 13.4065Z" fill="#FF974B"/>
<path d="M7.63168 14.6013L0 10.5547V19.1786L7.63168 23.2252V14.6013Z" fill="#FFE500" fill-opacity="0.69"/>
<path fill-rule="evenodd" clip-rule="evenodd" d="M15.2381 10.457C13.3063 10.457 11.7402 12.0231 11.7402 13.9549C11.7402 15.8867 13.3063 17.4527 15.2381 17.4527C17.1699 17.4527 18.7359 15.8867 18.7359 13.9549C18.7359 13.4082 18.6105 12.8909 18.3869 12.43C18.3176 13.1897 17.6788 13.7847 16.9011 13.7847C16.077 13.7847 15.409 13.1167 15.409 12.2927C15.409 11.5147 16.0044 10.8757 16.7645 10.8067C16.3032 10.5827 15.7853 10.457 15.2381 10.457Z" fill="#FF974B"/>
</svg>
