<svg width="117" height="40" viewBox="0 0 117 40" fill="none" xmlns="http://www.w3.org/2000/svg">
<path d="M7.63086 29.2386L15.2625 33.2852L15.2625 24.6612L7.63086 20.6146L7.63086 29.2386Z" fill="#FFED4F"/>
<path d="M7.63168 19.4065L0 23.4531L7.53928e-07 14.8292L7.63168 10.7826L7.63168 19.4065Z" fill="#FF974B"/>
<path d="M22.8953 29.2386L15.2637 33.2852L15.2637 24.6612L22.8953 20.6146L22.8953 29.2386Z" fill="#FFCD17"/>
<path d="M15.2625 15.344L7.63086 19.3906L7.63086 10.7667L15.2625 6.72012L15.2625 15.344Z" fill="#FF974B"/>
<path d="M15.2629 15.344L22.8945 19.3906L22.8945 10.7667L15.2629 6.72012L15.2629 15.344Z" fill="#FF974B"/>
<path d="M22.8957 19.4065L30.5273 23.4531L30.5273 14.8292L22.8957 10.7826L22.8957 19.4065Z" fill="#FF974B"/>
<path d="M7.63168 20.6013L0 16.5547V25.1786L7.63168 29.2252V20.6013Z" fill="#FFE500" fill-opacity="0.69"/>
<path fill-rule="evenodd" clip-rule="evenodd" d="M15.2381 16.457C13.3063 16.457 11.7402 18.0231 11.7402 19.9549C11.7402 21.8867 13.3063 23.4527 15.2381 23.4527C17.1699 23.4527 18.7359 21.8867 18.7359 19.9549C18.7359 19.4082 18.6105 18.8909 18.3869 18.43C18.3176 19.1897 17.6788 19.7847 16.9011 19.7847C16.077 19.7847 15.409 19.1167 15.409 18.2927C15.409 17.5147 16.0044 16.8757 16.7645 16.8067C16.3032 16.5827 15.7853 16.457 15.2381 16.457Z" fill="#FF974B"/>
<path d="M37.443 10.4048H49.8752C55.6397 10.4048 58.004 12.7159 58.004 17.896V21.5088C58.004 26.6889 55.6397 29 49.8752 29H37.443C36.9117 29 36.6461 28.7344 36.6461 28.2031V11.2017C36.6461 10.6704 36.9117 10.4048 37.443 10.4048ZM40.7104 14.4692V24.9622C40.7104 25.2013 40.8167 25.3075 41.0558 25.3075H49.769C52.9036 25.3075 53.9396 24.2981 53.9396 21.1635V18.2413C53.9396 15.1067 52.9036 14.0973 49.769 14.0973H41.0558C40.8167 14.0973 40.7104 14.2035 40.7104 14.4692ZM70.4806 10.4048H72.0479C73.4027 10.4048 74.2262 10.8298 75.1029 12.4237L83.8957 28.389C84.0817 28.7344 84.002 29 83.577 29H80.2033C79.8579 29 79.7251 28.9203 79.5923 28.6547L77.7062 25.2278H65.2208L63.3879 28.6547C63.2551 28.9203 63.0957 29 62.7769 29H59.3235C58.8719 29 58.7922 28.7344 58.9782 28.389L67.6913 12.4237C68.568 10.8298 69.3649 10.4048 70.4806 10.4048ZM71.065 14.3629L66.8944 22.1463H76.0326L71.8088 14.3629C71.7292 14.2301 71.6495 14.177 71.5166 14.177H71.3573C71.2244 14.177 71.1447 14.2301 71.065 14.3629ZM92.3053 10.4048H100.514C105.906 10.4048 107.952 12.3174 107.952 17.4178V21.987C107.952 27.0874 105.906 29 100.514 29H92.3053C86.9392 29 84.8672 27.0874 84.8672 21.987V17.4178C84.8672 12.3174 86.9392 10.4048 92.3053 10.4048ZM88.9316 17.7101V21.6947C88.9316 24.484 89.7285 25.3075 92.4647 25.3075H100.354C103.091 25.3075 103.887 24.484 103.887 21.6947V17.7101C103.887 14.9208 103.091 14.0973 100.354 14.0973H92.4647C89.7285 14.0973 88.9316 14.9208 88.9316 17.7101ZM111.786 14.416H114.39C114.788 14.416 114.974 14.6286 114.974 15.027V28.4156C114.974 28.814 114.788 29 114.39 29H111.786C111.388 29 111.202 28.814 111.202 28.4156V15.027C111.202 14.6286 111.388 14.416 111.786 14.416ZM111.786 9.02344H114.39C114.788 9.02344 114.974 9.20939 114.974 9.60786V12.1315C114.974 12.53 114.788 12.7425 114.39 12.7425H111.786C111.388 12.7425 111.175 12.53 111.175 12.1315V9.60786C111.175 9.20939 111.388 9.02344 111.786 9.02344Z" fill="#FF974B"/>
</svg>
