<svg width="141" height="48" viewBox="0 0 141 48" fill="none" xmlns="http://www.w3.org/2000/svg">
<path d="M9.16016 35.0816L18.3181 39.9375L18.3181 29.5888L9.16016 24.7329L9.16016 35.0816Z" fill="#FFED4F"/>
<path d="M9.15792 23.2808L0 28.1367L9.04705e-07 17.788L9.15792 12.9321L9.15792 23.2808Z" fill="#FF974B"/>
<path d="M27.4782 35.0816L18.3203 39.9375L18.3203 29.5888L27.4782 24.7329L27.4782 35.0816Z" fill="#FFCD17"/>
<path d="M18.3181 18.4058L9.16016 23.2617L9.16016 12.913L18.3181 8.05711L18.3181 18.4058Z" fill="#FF974B"/>
<path d="M18.3147 18.4058L27.4727 23.2617L27.4727 12.913L18.3147 8.05711L18.3147 18.4058Z" fill="#FF974B"/>
<path d="M27.4749 23.2808L36.6328 28.1367L36.6328 17.788L27.4749 12.9321L27.4749 23.2808Z" fill="#FF974B"/>
<path d="M9.15792 24.7153L0 19.8594V30.2081L9.15792 35.064V24.7153Z" fill="#FFE500" fill-opacity="0.69"/>
<path fill-rule="evenodd" clip-rule="evenodd" d="M18.2892 19.7422C15.971 19.7422 14.0918 21.6214 14.0918 23.9396C14.0918 26.2578 15.971 28.137 18.2892 28.137C20.6073 28.137 22.4866 26.2578 22.4866 23.9396C22.4866 23.2817 22.3352 22.6591 22.0654 22.1048C21.9841 23.0184 21.2167 23.7347 20.282 23.7347C19.2931 23.7347 18.4915 22.933 18.4915 21.9442C18.4915 21.0102 19.2065 20.2433 20.119 20.161C19.566 19.8927 18.9451 19.7422 18.2892 19.7422Z" fill="#FF974B"/>
<path d="M45.2314 11.6859H60.15C67.0674 11.6859 69.9045 14.4592 69.9045 20.6753V25.0106C69.9045 31.2267 67.0674 34 60.15 34H45.2314C44.5939 34 44.2751 33.6812 44.2751 33.0437V12.6422C44.2751 12.0046 44.5939 11.6859 45.2314 11.6859ZM49.1524 16.5631V29.1546C49.1524 29.4415 49.2799 29.5691 49.5668 29.5691H60.0225C63.7841 29.5691 65.0273 28.3577 65.0273 24.5962V21.0897C65.0273 17.3282 63.7841 16.1168 60.0225 16.1168H49.5668C49.2799 16.1168 49.1524 16.2443 49.1524 16.5631ZM84.8764 11.6859H86.7571C88.3829 11.6859 89.3711 12.1959 90.423 14.1085L100.974 33.2668C101.198 33.6812 101.102 34 100.592 34H96.5435C96.1291 34 95.9697 33.9044 95.8103 33.5856L93.547 29.4734H78.5647L76.3651 33.5856C76.2057 33.9044 76.0145 34 75.632 34H71.4879C70.946 34 70.8504 33.6812 71.0735 33.2668L81.5293 14.1085C82.5812 12.1959 83.5375 11.6859 84.8764 11.6859ZM85.5777 16.4356L80.5729 25.7756H91.5387L86.4702 16.4356C86.3746 16.2762 86.279 16.2125 86.1196 16.2125H85.9283C85.7689 16.2125 85.6733 16.2762 85.5777 16.4356ZM111.066 11.6859H120.916C127.387 11.6859 129.842 13.981 129.842 20.1015V25.5844C129.842 31.7048 127.387 34 120.916 34H111.066C104.627 34 102.14 31.7048 102.14 25.5844V20.1015C102.14 13.981 104.627 11.6859 111.066 11.6859ZM107.017 20.4521V25.2337C107.017 28.5809 107.974 29.5691 111.257 29.5691H120.725C124.008 29.5691 124.964 28.5809 124.964 25.2337V20.4521C124.964 17.105 124.008 16.1168 120.725 16.1168H111.257C107.974 16.1168 107.017 17.105 107.017 20.4521ZM134.443 16.4993H137.567C138.045 16.4993 138.268 16.7544 138.268 17.2325V33.2987C138.268 33.7769 138.045 34 137.567 34H134.443C133.965 34 133.742 33.7769 133.742 33.2987V17.2325C133.742 16.7544 133.965 16.4993 134.443 16.4993ZM134.443 10.0282H137.567C138.045 10.0282 138.268 10.2514 138.268 10.7296V13.7579C138.268 14.2361 138.045 14.4911 137.567 14.4911H134.443C133.965 14.4911 133.71 14.2361 133.71 13.7579V10.7296C133.71 10.2514 133.965 10.0282 134.443 10.0282Z" fill="#FF974B"/>
</svg>
