<svg width="79" height="20" viewBox="0 0 79 20" fill="none" xmlns="http://www.w3.org/2000/svg">
<path d="M1.44301 1.4048H13.8752C19.6397 1.4048 22.004 3.71592 22.004 8.89601V12.5088C22.004 17.6889 19.6397 20 13.8752 20H1.44301C0.911715 20 0.646069 19.7344 0.646069 19.2031V2.20174C0.646069 1.67044 0.911715 1.4048 1.44301 1.4048ZM4.71045 5.46918V15.9622C4.71045 16.2013 4.81671 16.3075 5.05579 16.3075H13.769C16.9036 16.3075 17.9396 15.2981 17.9396 12.1635V9.24135C17.9396 6.10673 16.9036 5.09727 13.769 5.09727H5.05579C4.81671 5.09727 4.71045 5.20353 4.71045 5.46918ZM34.4806 1.4048H36.0479C37.4027 1.4048 38.2262 1.82983 39.1029 3.42371L47.8957 19.389C48.0817 19.7344 48.002 20 47.577 20H44.2033C43.8579 20 43.7251 19.9203 43.5923 19.6547L41.7062 16.2278H29.2208L27.3879 19.6547C27.2551 19.9203 27.0957 20 26.7769 20H23.3235C22.8719 20 22.7922 19.7344 22.9782 19.389L31.6913 3.42371C32.568 1.82983 33.3649 1.4048 34.4806 1.4048ZM35.065 5.36292L30.8944 13.1463H40.0326L35.8088 5.36292C35.7292 5.2301 35.6495 5.17697 35.5166 5.17697H35.3573C35.2244 5.17697 35.1447 5.2301 35.065 5.36292ZM56.3053 1.4048H64.5137C69.9063 1.4048 71.9518 3.31745 71.9518 8.41785V12.987C71.9518 18.0874 69.9063 20 64.5137 20H56.3053C50.9392 20 48.8672 18.0874 48.8672 12.987V8.41785C48.8672 3.31745 50.9392 1.4048 56.3053 1.4048ZM52.9316 8.71006V12.6947C52.9316 15.484 53.7285 16.3075 56.4647 16.3075H64.3544C67.0905 16.3075 67.8874 15.484 67.8874 12.6947V8.71006C67.8874 5.92078 67.0905 5.09727 64.3544 5.09727H56.4647C53.7285 5.09727 52.9316 5.92078 52.9316 8.71006ZM75.7865 5.41605H78.3898C78.7883 5.41605 78.9742 5.62857 78.9742 6.02703V19.4156C78.9742 19.814 78.7883 20 78.3898 20H75.7865C75.388 20 75.202 19.814 75.202 19.4156V6.02703C75.202 5.62857 75.388 5.41605 75.7865 5.41605ZM75.7865 0.02344H78.3898C78.7883 0.02344 78.9742 0.209391 78.9742 0.607861V3.13149C78.9742 3.52996 78.7883 3.74248 78.3898 3.74248H75.7865C75.388 3.74248 75.1755 3.52996 75.1755 3.13149V0.607861C75.1755 0.209391 75.388 0.02344 75.7865 0.02344Z" fill="#FF974B"/>
</svg>
